<svg width="2955" height="1210" viewBox="0 0 2955 1210" fill="none" xmlns="http://www.w3.org/2000/svg">
<circle cx="548.5" cy="571.5" r="548.5" fill="#C60036"/>
<circle cx="548" cy="572" r="111" fill="white"/>
<rect x="513" y="605" width="71" height="515" fill="white"/>
<rect x="731" y="151" width="121" height="103" fill="white"/>
<path d="M1959.2 505.222H1781.64C1779.27 486.992 1774.42 470.539 1767.08 455.861C1759.74 441.183 1750.04 428.635 1737.96 418.219C1725.89 407.802 1711.57 399.871 1694.99 394.426C1678.66 388.744 1660.55 385.903 1640.66 385.903C1605.39 385.903 1574.97 394.544 1549.4 411.827C1524.07 429.109 1504.54 454.085 1490.8 486.756C1477.31 519.426 1470.56 558.962 1470.56 605.364C1470.56 653.659 1477.43 694.142 1491.16 726.812C1505.13 759.246 1524.66 783.749 1549.75 800.321C1575.08 816.656 1605.03 824.824 1639.6 824.824C1659.01 824.824 1676.65 822.338 1692.51 817.366C1708.61 812.395 1722.69 805.174 1734.77 795.705C1747.08 785.998 1757.14 774.279 1764.95 760.548C1773 746.58 1778.56 730.837 1781.64 713.318L1959.2 714.384C1956.12 746.58 1946.77 778.304 1931.14 809.554C1915.76 840.804 1894.57 869.331 1867.58 895.136C1840.59 920.705 1807.68 941.064 1768.86 956.216C1730.27 971.367 1686 978.943 1636.05 978.943C1570.23 978.943 1511.28 964.502 1459.2 935.619C1407.35 906.5 1366.4 864.123 1336.33 808.489C1306.26 752.854 1291.23 685.146 1291.23 605.364C1291.23 525.345 1306.5 457.518 1337.04 401.884C1367.58 346.249 1408.89 303.991 1460.97 275.108C1513.06 246.225 1571.41 231.784 1636.05 231.784C1680.08 231.784 1720.8 237.939 1758.2 250.25C1795.61 262.324 1828.52 280.08 1856.93 303.517C1885.34 326.718 1908.42 355.245 1926.17 389.099C1943.93 422.954 1954.94 461.661 1959.2 505.222ZM2059.78 969V241.727H2363.05C2417.5 241.727 2463.08 249.421 2499.77 264.81C2536.7 280.198 2564.4 301.741 2582.87 329.44C2601.57 357.139 2610.92 389.218 2610.92 425.676C2610.92 453.375 2605.12 478.115 2593.52 499.895C2581.92 521.438 2565.94 539.312 2545.58 553.517C2525.22 567.722 2501.66 577.665 2474.91 583.347V590.449C2504.27 591.869 2531.38 599.8 2556.23 614.241C2581.33 628.683 2601.45 648.806 2616.6 674.611C2631.75 700.179 2639.33 730.482 2639.33 765.52C2639.33 804.582 2629.39 839.502 2609.5 870.278C2589.61 900.818 2560.85 924.966 2523.21 942.722C2485.57 960.241 2439.87 969 2386.13 969H2059.78ZM2235.57 827.31H2344.23C2382.35 827.31 2410.4 820.089 2428.39 805.648C2446.62 791.206 2455.74 771.083 2455.74 745.278C2455.74 726.576 2451.36 710.477 2442.6 696.983C2433.84 683.252 2421.41 672.717 2405.31 665.378C2389.21 657.802 2369.92 654.014 2347.43 654.014H2235.57V827.31ZM2235.57 540.733H2332.87C2352.04 540.733 2369.09 537.537 2384 531.145C2398.92 524.753 2410.52 515.52 2418.8 503.446C2427.33 491.372 2431.59 476.812 2431.59 459.767C2431.59 435.383 2422.95 416.206 2405.67 402.239C2388.38 388.271 2365.06 381.287 2335.71 381.287H2235.57V540.733ZM2899.63 241.727V969H2723.85V241.727H2899.63Z" fill="#5000F0"/>
</svg>
